<?xml version="1.0" encoding="UTF-8" standalone="no"?>
<!-- Generator: Adobe Illustrator 19.0.0, SVG Export Plug-In . SVG Version: 6.00 Build 0)  -->

<svg
   xmlns:dc="http://purl.org/dc/elements/1.1/"
   xmlns:cc="http://creativecommons.org/ns#"
   xmlns:rdf="http://www.w3.org/1999/02/22-rdf-syntax-ns#"
   xmlns:svg="http://www.w3.org/2000/svg"
   xmlns="http://www.w3.org/2000/svg"
   xmlns:sodipodi="http://sodipodi.sourceforge.net/DTD/sodipodi-0.dtd"
   xmlns:inkscape="http://www.inkscape.org/namespaces/inkscape"
   version="1.1"
   id="Layer_1"
   x="0px"
   y="0px"
   viewBox="0 0 13.97 17"
   style="enable-background:new 0 0 13.97 17;"
   xml:space="preserve"
   inkscape:version="0.91 r13725"
   sodipodi:docname="white_tumblr_mic.svg"><metadata
     id="metadata11"><rdf:RDF><cc:Work
         rdf:about=""><dc:format>image/svg+xml</dc:format><dc:type
           rdf:resource="http://purl.org/dc/dcmitype/StillImage" /></cc:Work></rdf:RDF></metadata><defs
     id="defs9" /><sodipodi:namedview
     pagecolor="#ffffff"
     bordercolor="#666666"
     borderopacity="1"
     objecttolerance="10"
     gridtolerance="10"
     guidetolerance="10"
     inkscape:pageopacity="0"
     inkscape:pageshadow="2"
     inkscape:window-width="686"
     inkscape:window-height="480"
     id="namedview7"
     showgrid="false"
     inkscape:zoom="13.882353"
     inkscape:cx="2.079831"
     inkscape:cy="8.5"
     inkscape:window-x="279"
     inkscape:window-y="61"
     inkscape:window-maximized="0"
     inkscape:current-layer="Layer_1" /><style
     type="text/css"
     id="style3">
	.st0{fill-rule:evenodd;clip-rule:evenodd;}
</style><path
     id="XMLID_3_"
     class="st0"
     d="M13.97,8.32c0-0.01-0.02-0.24-0.02-0.25c0-0.32-0.27-0.58-0.6-0.58c-0.33,0-0.6,0.26-0.6,0.58  c0,0,0,0,0,0l-0.01,0c-0.38,2.8-2.72,4.97-5.8,4.97c-2.54,0-4.89-1.48-5.78-3.56c-0.1-0.19-0.3-0.33-0.54-0.33  C0.27,9.15,0,9.4,0,9.72c0,0.1,0.08,0.38,0.08,0.38c0.99,2.25,3.23,3.75,5.9,4.03V16h-1.5c-0.28,0-0.5,0.22-0.5,0.5  c0,0.27,0.22,0.5,0.5,0.5h1.5h2h1.5c0.28,0,0.5-0.23,0.5-0.5c0-0.28-0.22-0.5-0.5-0.5h-1.5v-1.88C11.29,13.74,13.6,11.46,13.97,8.32  z"
     style="fill:#ffffff;fill-opacity:1" /><path
     id="XMLID_7_"
     class="st0"
     d="M6.98,12c2.75,0,5-2.25,5-5V5c0-2.75-2.25-5-5-5c-2.75,0-5,2.25-5,5V7C1.98,9.75,4.23,12,6.98,12  z"
     style="stroke:none;stroke-opacity:1;fill:#ffffff;fill-opacity:1" /></svg>