<?xml version="1.0" encoding="UTF-8" standalone="no"?>
<!-- Generator: Adobe Illustrator 16.0.0, SVG Export Plug-In . SVG Version: 6.00 Build 0)  -->

<svg
   xmlns:dc="http://purl.org/dc/elements/1.1/"
   xmlns:cc="http://creativecommons.org/ns#"
   xmlns:rdf="http://www.w3.org/1999/02/22-rdf-syntax-ns#"
   xmlns:svg="http://www.w3.org/2000/svg"
   xmlns="http://www.w3.org/2000/svg"
   xmlns:sodipodi="http://sodipodi.sourceforge.net/DTD/sodipodi-0.dtd"
   xmlns:inkscape="http://www.inkscape.org/namespaces/inkscape"
   version="1.1"
   id="Capa_1"
   x="0px"
   y="0px"
   width="615.52px"
   height="615.52px"
   viewBox="0 0 615.52 615.52"
   style="enable-background:new 0 0 615.52 615.52;"
   xml:space="preserve"
   inkscape:version="0.91 r13725"
   sodipodi:docname="search.svg"><metadata
   id="metadata46"><rdf:RDF><cc:Work
       rdf:about=""><dc:format>image/svg+xml</dc:format><dc:type
         rdf:resource="http://purl.org/dc/dcmitype/StillImage" /></cc:Work></rdf:RDF></metadata><defs
   id="defs44" /><sodipodi:namedview
   pagecolor="#ffffff"
   bordercolor="#666666"
   borderopacity="1"
   objecttolerance="10"
   gridtolerance="10"
   guidetolerance="10"
   inkscape:pageopacity="0"
   inkscape:pageshadow="2"
   inkscape:window-width="699"
   inkscape:window-height="480"
   id="namedview42"
   showgrid="false"
   inkscape:zoom="0.033889475"
   inkscape:cx="-3060.7093"
   inkscape:cy="-1148.7027"
   inkscape:window-x="672"
   inkscape:window-y="79"
   inkscape:window-maximized="0"
   inkscape:current-layer="Capa_1" />
<g
   id="g3"
   style="fill:#848484;fill-opacity:1">
	<g
   id="g5"
   style="fill:#848484;fill-opacity:1">
		<g
   id="Search__x28_and_thou_shall_find_x29_"
   style="fill:#848484;fill-opacity:1">
			<g
   id="g8"
   style="fill:#848484;fill-opacity:1">
				<path
   d="M602.531,549.736l-184.31-185.368c26.679-37.72,42.528-83.729,42.528-133.548C460.75,103.35,357.997,0,231.258,0      C104.518,0,1.765,103.35,1.765,230.82c0,127.47,102.753,230.82,229.493,230.82c49.53,0,95.271-15.944,132.78-42.777      l184.31,185.366c7.482,7.521,17.292,11.291,27.102,11.291c9.812,0,19.62-3.77,27.083-11.291      C617.496,589.188,617.496,564.777,602.531,549.736z M355.9,319.763l-15.042,21.273L319.7,356.174      c-26.083,18.658-56.667,28.526-88.442,28.526c-84.365,0-152.995-69.035-152.995-153.88c0-84.846,68.63-153.88,152.995-153.88      s152.996,69.034,152.996,153.88C384.271,262.769,374.462,293.526,355.9,319.763z"
   id="path10"
   style="fill:#848484;fill-opacity:1" />
			</g>
		</g>
	</g>
</g>
<g
   id="g12">
</g>
<g
   id="g14">
</g>
<g
   id="g16">
</g>
<g
   id="g18">
</g>
<g
   id="g20">
</g>
<g
   id="g22">
</g>
<g
   id="g24">
</g>
<g
   id="g26">
</g>
<g
   id="g28">
</g>
<g
   id="g30">
</g>
<g
   id="g32">
</g>
<g
   id="g34">
</g>
<g
   id="g36">
</g>
<g
   id="g38">
</g>
<g
   id="g40">
</g>
</svg>